<svg width="15" height="13" viewBox="0 0 15 13" fill="none" xmlns="http://www.w3.org/2000/svg">
<path d="M0.312724 1.48372C2.37142 3.33287 5.98378 6.58609 7.0455 7.60045C7.18803 7.73736 7.3409 7.80696 7.4996 7.80696C7.65798 7.80696 7.81059 7.73801 7.95279 7.60176C9.01542 6.5864 12.6278 3.33287 14.6865 1.48372C14.8147 1.36881 14.8342 1.16684 14.7304 1.02636C14.4906 0.701749 14.1329 0.515625 13.7496 0.515625H1.24961C0.866318 0.515625 0.508633 0.701749 0.268779 1.02639C0.165009 1.16684 0.18455 1.36881 0.312724 1.48372Z" fill="white"/>
<path d="M14.8187 2.48598C14.708 2.43129 14.5777 2.45037 14.4855 2.53389C12.2024 4.5866 9.28863 7.21775 8.37188 8.0939C7.85733 8.58652 7.14322 8.58652 6.62748 8.09325C5.65031 7.15946 2.3782 4.20919 0.514512 2.53386C0.421729 2.45034 0.291123 2.43191 0.18126 2.48595C0.0708105 2.54035 0 2.65753 0 2.78667V11.1218C0 11.853 0.560596 12.4476 1.25001 12.4476H13.75C14.4394 12.4476 15 11.853 15 11.1218V2.78667C15 2.65753 14.9292 2.54004 14.8187 2.48598Z" fill="white"/>
</svg>
