<svg width="29" height="30" viewBox="0 0 29 30" fill="none" xmlns="http://www.w3.org/2000/svg">
<ellipse cx="14.5" cy="15" rx="14.5" ry="15" fill="white"/>
<path d="M14.999 11.4805C12.8707 11.4805 11.1465 13.2055 11.1465 15.333C11.1465 17.4613 12.8707 19.1863 14.999 19.1863C17.1257 19.1863 18.8515 17.4613 18.8515 15.333C18.8515 13.2055 17.1257 11.4805 14.999 11.4805ZM14.999 17.8363C13.6165 17.8363 12.4957 16.7155 12.4957 15.3338C12.4957 13.9513 13.6165 12.8313 14.999 12.8313C16.3815 12.8313 17.5007 13.9513 17.5007 15.3338C17.5007 16.7155 16.3815 17.8363 14.999 17.8363Z" fill="#ED2840"/>
<path d="M22.1111 10.4257C21.7203 9.41824 20.9245 8.62157 19.917 8.2324C19.3345 8.01324 18.7186 7.89574 18.0953 7.8824C17.2928 7.8474 17.0386 7.8374 15.0036 7.8374C12.9686 7.8374 12.7078 7.8374 11.912 7.8824C11.2903 7.8949 10.6745 8.0124 10.092 8.2324C9.08362 8.62157 8.28779 9.41824 7.89779 10.4257C7.67862 11.0091 7.56112 11.6241 7.54862 12.2474C7.51279 13.0491 7.50195 13.3032 7.50195 15.3391C7.50195 17.3741 7.50195 17.6332 7.54862 18.4307C7.56112 19.0541 7.67862 19.6691 7.89779 20.2532C8.28862 21.2599 9.08445 22.0566 10.0928 22.4466C10.6728 22.6732 11.2886 22.8016 11.9136 22.8216C12.7161 22.8566 12.9703 22.8674 15.0053 22.8674C17.0403 22.8674 17.3011 22.8674 18.097 22.8216C18.7195 22.8091 19.3353 22.6907 19.9186 22.4724C20.9261 22.0816 21.722 21.2857 22.1128 20.2782C22.332 19.6949 22.4495 19.0799 22.462 18.4566C22.4978 17.6549 22.5086 17.4007 22.5086 15.3649C22.5086 13.3291 22.5086 13.0707 22.462 12.2732C22.4511 11.6416 22.3345 11.0157 22.1111 10.4257ZM21.0961 18.3691C21.0903 18.8491 21.0036 19.3249 20.837 19.7757C20.5828 20.4316 20.0653 20.9499 19.4103 21.2016C18.9645 21.3674 18.4945 21.4541 18.0186 21.4607C17.227 21.4974 17.0036 21.5066 14.9736 21.5066C12.942 21.5066 12.7345 21.5066 11.9278 21.4607C11.4536 21.4549 10.982 21.3674 10.537 21.2016C9.87945 20.9507 9.35862 20.4324 9.10445 19.7757C8.94112 19.3307 8.85279 18.8599 8.84529 18.3849C8.80945 17.5932 8.80112 17.3699 8.80112 15.3399C8.80112 13.3091 8.80112 13.1016 8.84529 12.2941C8.85112 11.8141 8.93779 11.3391 9.10445 10.8882C9.35862 10.2307 9.87945 9.71324 10.537 9.46157C10.982 9.29657 11.4536 9.20907 11.9278 9.2024C12.7203 9.16657 12.9428 9.15657 14.9736 9.15657C17.0045 9.15657 17.2128 9.15657 18.0186 9.2024C18.4945 9.20824 18.9645 9.29574 19.4103 9.46157C20.0653 9.71407 20.5828 10.2324 20.837 10.8882C21.0003 11.3332 21.0886 11.8041 21.0961 12.2791C21.132 13.0716 21.1411 13.2941 21.1411 15.3249C21.1411 17.3549 21.1411 17.5732 21.1053 18.3699H21.0961V18.3691Z" fill="#ED2840"/>
<path d="M19.0048 12.2371C19.5009 12.2371 19.9031 11.8349 19.9031 11.3388C19.9031 10.8426 19.5009 10.4404 19.0048 10.4404C18.5086 10.4404 18.1064 10.8426 18.1064 11.3388C18.1064 11.8349 18.5086 12.2371 19.0048 12.2371Z" fill="#ED2840"/>
</svg>
