<svg width="15" height="22" viewBox="0 0 15 22" fill="none" xmlns="http://www.w3.org/2000/svg">
<path d="M7.5 0C3.36448 0 0 3.44623 0 7.68219C0 12.9392 6.71176 20.6567 6.99752 20.9827C7.26593 21.2889 7.73455 21.2883 8.00248 20.9827C8.28823 20.6567 15 12.9392 15 7.68219C14.9999 3.44623 11.6355 0 7.5 0ZM7.5 11.5473C5.41932 11.5473 3.7266 9.81344 3.7266 7.68219C3.7266 5.55095 5.41936 3.81711 7.5 3.81711C9.58064 3.81711 11.2734 5.551 11.2734 7.68224C11.2734 9.81348 9.58064 11.5473 7.5 11.5473Z" fill="white"/>
</svg>
