<svg width="15" height="16" viewBox="0 0 15 16" fill="none" xmlns="http://www.w3.org/2000/svg">
<g clip-path="url(#clip0)">
<path d="M13.0869 10.4425C12.2157 10.4425 11.3604 10.2902 10.5499 9.99066C10.1527 9.83919 9.66442 9.97815 9.42202 10.2565L7.82216 11.6069C5.96677 10.4995 4.82389 9.22205 3.84701 7.16311L5.0192 5.4209C5.32375 5.08084 5.43298 4.5841 5.30211 4.11801C5.0331 3.20697 4.89644 2.25105 4.89644 1.27662C4.89648 0.572686 4.38429 0 3.75475 0H1.14173C0.512192 0 0 0.572686 0 1.27658C0 9.34506 5.87069 15.9091 13.0869 15.9091C13.7164 15.9091 14.2286 15.3364 14.2286 14.6325V11.719C14.2286 11.0152 13.7164 10.4425 13.0869 10.4425Z" fill="white"/>
</g>
<defs>
<clipPath id="clip0">
<rect width="14.2286" height="15.9091" fill="white"/>
</clipPath>
</defs>
</svg>
